<svg xmlns="http://www.w3.org/2000/svg" xml:space="preserve" x="0px" y="0px" style="enable-background:new 0 0 624.1 243.7" viewBox="0 0 624.1 243.7"><path d="M31.6 182.8h-4.5L0 243.7h10.4c1.7-5.8 3.6-11.4 5.9-17h22.1c2.7 6.6 4.8 12.6 6.4 17h12.9l-26.1-60.9zm-4.2 17.7c6.6 15.1 6.7 15.2 8.2 19.1H19.2c1.8-4 1.8-4.1 8.2-19.1zm400.7 43.2H441l-26.1-60.9h-4.5l-27.1 60.9h10.4c1.7-5.8 3.6-11.4 5.9-17h22.1c2.8 6.6 4.9 12.6 6.4 17zm-17.4-43.2c6.6 15.3 6.7 15.3 8.2 19.1h-16.3c1.3-3 1.3-3.1 8.1-19.1zm-43.8 43.2c-1.6-18.9-2.7-30.3-3.5-37.8-10.2 18.4-14.7 27.4-18.8 36.9h-3.4c-10.3-21.1-11.4-23.2-13.8-27.6-1-1.9-2.2-4.1-4.7-8.9-.4 3.8-2.3 20.4-3.5 37.4h-9.3c3-21.4 7.6-57.6 7.9-59.7h5.5c.8 1.7 1.6 3.3 2.5 4.9 6.8 13.7 12.2 24.5 18.8 35.7l.1.2.1-.2c3-5.4 5.6-10.5 8.2-15.4 4-7.6 8.2-15.4 13.7-25.2h5c.2 1.9 3.6 31.4 7.1 59.7h-11.9zm180.2 0V184h11.1v59.7h-11.1zm-277.8 0c-2.5-3.2-20.3-22.8-37.3-41.6v41.6h-8.6V184h6.1l36.7 39.8V184h8.6v59.7h-5.5zm-148.6 0v-51.6c-6.3 0-12.6.4-18.8 1.2V184h47.9v9.3c-6-.8-12-1.2-18-1.2v51.6h-11.1zm-28.1-47.2c-.8-2.6-3.4-6.7-10.6-6.7-5.4 0-10.1 3.7-10.1 8.2 0 5.8 6.5 8 11 9.6 8 3 13.2 4.9 16.1 10.7 1.2 2.3 1.8 4.8 1.8 7.4-.1 5.1-2.3 10-6.1 13.3-4.4 4-10.7 6.1-18 6.1-5.7.1-11.3-1.6-16-4.9v-12.8H65c1.7 3.8 5.1 10.1 13.6 10.1 2 0 11.6-.9 11.4-9.6-.2-6.2-5.2-8-11.4-10.1-3.2-1.1-12.8-3.8-16.2-12-1.3-3-1.4-6.3-.5-9.5 2-7.2 9.6-14 20.1-14 5.1.1 10.1 1.4 14.7 3.6v10.4l-4.1.2zm89.6 49.2c-8 .1-15.7-2.9-21.6-8.3-5.1-4.8-9.4-12.5-9.4-23.6s4.4-18.8 9.4-23.6c5.8-5.4 13.6-8.4 21.6-8.3 7.5 0 22.1 3.1 28.4 18.3 1.8 4.3 2.6 8.9 2.6 13.6 0 11.1-4.4 18.8-9.4 23.6-5.9 5.5-13.6 8.4-21.6 8.3zm0-7.1c9.2 0 18.6-8.5 18.6-24.8s-9.4-24.8-18.6-24.8h-.1c-9.2 0-18.6 8.5-18.6 24.8s9.4 24.8 18.7 24.8zM446.7 184c3.2-.2 16.8-.4 17-.4 10.2 0 14.2 2 17.6 5.4 3.2 3.1 4.9 7.4 4.8 11.9-.1 4.2-1.9 8.2-4.8 11.2-2.4 2.3-5.3 4-8.5 5.1l22.4 26.3h-13.7l-20.2-24.9h-3.7v24.9h-11V184zm15.5 6.2c-1.5 0-3 .1-4.4.3h-.1v21.1h.1c1.5.3 3 .4 4.5.4 9 0 13-5.7 13-11.1 0-2.7-1.1-5.4-3-7.4-2.2-2.2-5.6-3.3-10.1-3.3zm47.7 53.5v-51.6c-6.3 0-12.6.4-18.8 1.2V184H539v9.3c-6-.8-12-1.2-18-1.2v51.6h-11.1zm108.8 0c-2.5-3.2-20.3-22.8-37.3-41.6v41.6h-8.6V184h6.1l36.7 39.8V184h8.6v59.7h-5.5zM565.4 0H355.6c-3.8 0-9.1-.1-14.7 5.6-5.3 5.3-3.7 10.6-12.5 10.6h-30.6c-8.8 0-7.2-5.3-12.5-10.6C279.7-.1 274.4 0 270.6 0H60.8c-7.2 0-10.3 6.4-6.9 12.1l3.8 6.3c1.4 2.5 3.9 4.1 6.6 4.4 1.9.1 3.5 1.3 4.3 3l3.4 5.9c2.6 4.8 5.7 5.3 7.9 5.8 1.8.3 3.4.5 5.7 4.5 2.4 4.4 5.7 10 13.3 12.2l78.4 22.9c8.1 2.6 10.2 5.6 12.6 9.1 1.3 1.8 5.1 8.3 15.7 11.2l74.5 20.1c7 1.9 11.9-.8 15.3-3.8l13.5-12.8c3.5-3.3 4.9-3.3 8.4 0l13.5 12.8c3.4 3 8.3 5.7 15.3 3.8l74.5-20.1c10.6-2.8 14.5-9.4 15.7-11.2 2.4-3.4 4.5-6.4 12.6-9.1l78.4-22.9c7.6-2.3 10.9-7.8 13.3-12.2 2.2-4.1 3.8-4.2 5.7-4.5 2.3-.4 5.4-1 7.9-5.8l3.3-5.9c1.4-2.4 2.5-2.7 4.3-3 2.8-.3 5.3-1.9 6.6-4.4l3.8-6.3c3.5-5.7.4-12.1-6.8-12.1zM60.9 13l-2.3-3.8c-.7-1.1-1.1-3.7 2.1-3.7h209.8c4.2 0 9-.1 13.6 8 .6 1.2 1.4 2.3 2.2 3.4H73.8c-8.6 0-10.3.1-12.9-3.9zM197 57.6V21.2h232.2v36.4H197zM77.6 30.2c-2-2-3.2-6-5-8.5l120.3-.5v5.3L91 32.4c-7.8.5-11.1.1-13.4-2.2zM93.3 44c-1.1-1.5-2.1-3-2.9-4.7-.4-.7-.8-1.5-1.3-2.2 1.5-.1 1.7-.1 4.4-.3l99.3-6.1v5.7l-78.5 8.4c-10.5 1.2-17.7 2.8-21-.8zm26.9 10.7-14.3-4.2c9.5-1.1 86.9-9.8 86.9-9.8V47l-50.3 8.1c-5.8.9-12.8 2.1-22.3-.4zm34.9 10.2-15.9-4.6c1.5-.2 2.4-.4 4.1-.6l49.6-8.3v6.8l-18.7 5.3c-.2-.1-11.7 3.4-19.1 1.4zm23.7 6.9-9.2-2.7c1.9-.4 3.9-.8 5.8-1.4l20.3-5.9h22.7l-21 9.8c-6.7 2.5-12.7 1.7-18.6.2zm20.9 16.9c-2.1-1.5-3.9-3.4-5.3-5.7-1.2-1.9-2.7-3.7-4.4-5.3 1.7-.1 3.3-.3 5-.7 2.7-.8 5.3-1.8 7.9-3l25.2-12.3h16.8l-33 23.4c-5.1 3.3-9.1 4.6-12.2 3.6zm24.9 8.1-16.2-4.4c2.1-.9 4.1-2 6-3.3 1.7-1.1-.3.3 38.1-27.4h14l-25.8 26.5c-4.5 4.7-9.5 9.8-16.1 8.6zm25.5 6.9-15.2-4.1c4.2-2.4 7.8-6.5 9.3-8L273 61.7h12.6l-22.9 35.8c-3.8 5.7-8.1 7-12.6 6.2zm26.7 7.2-16.2-4.4c2.6-1.7 4.8-4 6.4-6.6l24-38.1h10.9s-14.1 41.3-15.1 43.4c-2.8 6-6 6.5-10 5.7zm57.7-1.3-13.4-12.7c-5.6-5.3-10.4-5.3-16 0l-13.4 12.7c-.9.8-2 1.6-3.1 2.1 2.5-3.1 3.9-7.4 4.9-10.2l13.3-39.7h12.7l13.3 39.7c1 2.9 2.4 7.2 4.9 10.2-1.2-.6-2.2-1.3-3.2-2.1zm14.9 1.3c-3.9.8-7.2.3-10-5.7-1-2.1-15.1-43.4-15.1-43.4h10.9l24 38.1c1.6 2.7 3.7 4.9 6.3 6.6l-16.1 4.4zm26.7-7.2c-4.5.8-8.8-.4-12.5-6.1l-22.9-35.8h12.6L382 91.6c1.4 1.5 5.1 5.6 9.3 8l-15.2 4.1zm25.5-6.9c-6.6 1.2-11.6-3.9-16.1-8.6l-25.9-26.5h14S410 88 411.7 89.1c1.9 1.3 3.9 2.4 6 3.3l-16.1 4.4zM431.8 83c-1.4 2.2-3.2 4.1-5.3 5.7-3.1 1-7.1-.2-12.2-3.5-1.5-.9-33-23.4-33-23.4h16.8s19.4 9.6 25.2 12.2c3.2 1.5 7.4 3.4 12.9 3.7-1.7 1.6-3.2 3.4-4.4 5.3zm15.6-11.2c-6 1.6-11.9 2.4-18.6-.2-2.4-.9-21-9.8-21-9.8h22.7l20.3 5.9c1.9.6 3.8 1 5.8 1.4l-9.2 2.7zm23.7-6.9c-7.4 2-19.1-1.4-19.1-1.4l-18.7-5.3v-6.8l49.6 8.3c1.7.3 2.6.4 4.1.6l-15.9 4.6zM506 54.7c-9.5 2.5-16.5 1.4-22.3.4L433.4 47v-6.3l86.9 9.8-14.3 4.2zm29.8-15.4c-.9 1.6-1.8 3.2-2.9 4.7-3.3 3.6-10.5 2-21 .9l-78.5-8.4v-5.7l99.3 6.1c2.7.2 3 .2 4.5.3-.5.7-1 1.4-1.4 2.1zm11.3-8.5c-3.8 2.5-8.2 1.7-21.1 1l-92.6-5.4v-5.3l120.3.5c-2.5 3.6-3.2 7.1-6.6 9.2zm20.5-21.6-2.3 3.8c-2.6 4-4.2 3.9-12.9 3.9H339.8c.8-1.1 1.6-2.2 2.2-3.4 4.6-8 9.4-8 13.6-8h209.8c3.3 0 2.8 2.6 2.2 3.7zm-237 41.1c-.5-6.6-.9-10.4-1.2-13.1-2.4 4.1-4.5 8.4-6.5 12.8h-1.4c-3.5-7.2-3.9-8-4.9-9.9l-1.4-2.7c-.3 2.6-.8 7.7-1.2 12.9h-3.6c1-7.6 2.7-20.4 2.9-21.5h2.2s5.2 10.4 7.5 14.3c2.6-4.8 4.3-8.3 7.7-14.3h2c.4 3.1 1.5 12.9 2.6 21.5h-4.7zm66.3 0V28.8h-4.3v21.5h4.3zm-12.8 0V32c2.1 0 4.3.2 6.4.5v-3.7h-17.3v3.6c2.2-.3 4.5-.4 6.7-.4v18.3h4.2zm-134.2 0V32c2.1 0 4.3.2 6.4.5v-3.7H239v3.6c2.2-.3 4.5-.4 6.7-.4v18.3h4.2zm49.7 0V28.8h-3.4v13.9l-12.8-13.9H281v21.5h3.4V35.8l13 14.5h2.2zm-74.8-6.1V49c1.7 1.2 3.8 1.8 5.9 1.8 4.6 0 8.8-2.6 8.8-7 0-2.4-1.4-4.6-3.7-5.5-2.7-1.2-4.4-1.5-5.6-2.5-2.1-1.8-.4-4.7 2.5-4.7 1.6-.1 3.1.9 3.6 2.4h1.6v-4c-1.7-.8-3.5-1.3-5.4-1.3-1.7 0-3.4.5-4.7 1.5-3.3 2.4-4.2 7.3.5 10.1 2.9 1.8 6.9 1.6 7 4.7.1 2.4-2.2 3.2-3.9 3.2-3.4 0-4.4-3-4.7-3.6h-1.9zm-.2 6.1-9.4-21.9h-1.8l-9.8 21.9h4c.6-2 1.3-4 2.1-6h7.6c1 2.4 1.7 4.5 2.3 6h5zM211 41.4l2.6-6.2c2.1 4.7 2.2 5.1 2.7 6.2H211zm67.3-1.9c0-7.6-5.6-11.5-11.2-11.5S256 31.9 256 39.5 261.6 51 267.1 51s11.2-3.9 11.2-11.5zm-11.2 8.7c-3.4 0-6.5-3.2-6.5-8.6 0-5.7 3.2-8.6 6.5-8.6 3.2 0 6.5 3 6.5 8.6s-3.3 8.6-6.5 8.6zm90.8 2.1h4.2v-8.9h1.1l7.2 8.8h5.3l-8-9.5c1.1-.4 2-1 2.9-1.8 2.3-2.3 2.3-6.1 0-8.4-1.2-1.3-2.7-2-6.4-2 0 0-4.9 0-6.2.1l-.1 21.7zm4.2-18.9c.5-.1 1-.1 1.5-.1 4.4 0 4.5 3.2 4.5 3.7 0 2.2-2 4.3-6 3.6v-7.2zm-5.3 18.9-9.4-21.9h-1.8l-9.8 21.9h4c.6-2 1.3-4 2.1-6h7.6c1 2.4 1.7 4.5 2.3 6h5zm-13.7-8.9 2.6-6.2c2.1 4.7 2.2 5.1 2.7 6.2h-5.3zm76.7 8.9V28.8h-3.4v13.9l-12.8-13.9h-2.4v21.5h3.4V35.8l13 14.5h2.2z"/></svg>