<svg xmlns="http://www.w3.org/2000/svg" width="1280" height="1438" viewBox="0 0 1280 1438"><path fill="#c4b288" fill-rule="evenodd" d="M559.5 1.047c-123.971 5.344-236.847 20.808-340 46.58-56.679 14.16-126.095 37.327-157.009 52.4-32.117 15.659-49.363 35.167-56.997 64.473C.649 183.099.497 185.44.547 241c.045 50.674.853 74.859 3.993 119.5 19.085 271.347 92.612 500.474 223.571 696.698 84.712 126.929 195.93 242.162 333.557 345.595 25.703 19.317 43.632 29.396 59.289 33.329 12.049 3.027 31.04 2.365 42.317-1.476 16.328-5.561 31.12-14.489 58.726-35.444 154.279-117.111 273.168-246.536 361.193-393.202 110.773-184.569 174.405-399.982 191.267-647.5 3.142-46.12 3.895-68.594 3.966-118.5.066-46.101-.12-52.548-1.781-61.5-6.528-35.184-20.474-55.709-49.514-72.87-24.715-14.604-93.98-38.909-158.631-55.663-96.498-25.007-198.508-40.162-320-47.542-30.358-1.844-156.801-2.766-189-1.378M599 19.684c-191.08 3.498-374.523 35.931-510.409 90.241-45.988 18.38-62.037 36.569-67.565 76.575-3.677 26.613-1.26 121.788 5.004 197 20.894 250.88 89.733 464.286 209.522 649.531 83.021 128.386 195.094 246.2 334.02 351.129 20.751 15.674 28.707 20.973 39.936 26.603 23.897 11.983 41.765 10.714 69.16-4.911 13.43-7.66 66.668-48.741 102.832-79.35 218.66-185.074 357.878-405.156 427.468-675.762 25.15-97.795 40.962-203.749 47.494-318.24 2.139-37.502 3.881-106.533 3.127-123.889-2.501-57.507-16.651-77.692-69.18-98.686-46.232-18.478-100.557-35.349-154.252-47.904C904.394 31.212 755.73 16.814 599 19.684M566.813 72.47c-12.933 3.562-23.82 12.468-29.229 23.911-5.917 12.517-6.084 14.122-6.084 58.619 0 36.47.183 41.097 1.838 46.5 5.411 17.658 16.96 27.916 35.105 31.178 13.087 2.353 27.502.06 37.888-6.026 5.571-3.265 13.794-12.212 16.654-18.122 5.077-10.486 5.317-12.688 5.752-52.662.451-41.359-.26-49.777-5.089-60.325-5.017-10.958-15.84-19.795-28.183-23.01-7.072-1.842-22.074-1.875-28.652-.063m86.431 78.649.256 78.381 11.75.282 11.75.281V160h15.554l13.502 35.75 13.502 35.75 12.449.689c6.847.379 12.552.585 12.678.459.127-.127-6.232-17.005-14.131-37.507-12.212-31.699-14.114-37.362-12.708-37.844 9.715-3.328 15.978-8.525 19.531-16.208 1.928-4.168 2.123-6.331 2.123-23.589 0-18.77-.034-19.069-2.79-24.682-4.345-8.847-11.419-14.108-23.43-17.423-4.355-1.203-12.497-1.727-33.036-2.127l-27.256-.53zm136.243-71.32c-15.183 5.25-24.659 16.085-28.047 32.07-2.061 9.727-2.009 78.759.067 88.631 2.138 10.164 6.689 18.411 14.073 25.501 10.266 9.858 21.45 13.968 38.065 13.987 12.352.015 21.095-2.38 28.036-7.678 5.955-4.545 7.733-6.601 10.852-12.543 4.798-9.144 5.467-14.213 5.467-41.458v-25.271l-2.25-.467c-3.366-.7-38.263-4.571-41.202-4.571H812v19.841l6.75.71c3.712.391 8.775.998 11.25 1.349l4.5.637-.044 15.982c-.039 14.006-.302 16.551-2.131 20.589-4.56 10.068-16.767 14.372-29.711 10.476-9.99-3.006-16.678-11.106-18.605-22.532-.761-4.51-1.04-18.728-.828-42.177.361-40.062.486-40.761 8.561-48.034 6.738-6.069 18.985-7.136 28.059-2.444 7.222 3.735 12.814 12.833 14.661 23.853.436 2.598 1.152 3.761 2.333 3.786.938.02 6.093.615 11.455 1.322l9.75 1.286v-3.662c0-5.784-3.647-18.539-7.225-25.268-6.271-11.792-17.795-20.661-31.478-24.225-7.902-2.058-23.429-1.897-29.81.31m-321.987.919c-2.2.187-13.597 1.451-25.326 2.811S420.208 86 419.424 86c-1.22 0-1.424 11.242-1.424 78.5V243h2.421c4.831 0 55.781-6.021 60.368-7.134 12.172-2.954 21.514-9.683 25.88-18.642 2.705-5.551 2.8-6.303 3.152-24.94.296-15.723.069-20.1-1.252-24.076-1.889-5.686-6.584-10.626-11.827-12.441l-3.72-1.287 4.691-3.49c2.851-2.122 5.689-5.44 7.239-8.463 2.409-4.701 2.548-5.821 2.543-20.5-.005-19.523-1.397-24.885-8.286-31.942-6.989-7.158-18.31-10.502-31.709-9.367m415.744 87.019.256 78.763 9 1.164c4.95.64 10.007 1.203 11.237 1.25l2.237.086.263-34.795.263-34.794 21.237 3.418 21.238 3.418.262 35.114.263 35.113 11.256 2.108 11.256 2.107-.256-78.567-.256-78.568-10-1.715c-5.5-.943-10.562-1.743-11.25-1.777-.976-.048-1.25 7.172-1.25 32.938v33l-2.25-.062c-1.237-.035-10.8-1.512-21.25-3.283l-19-3.22-.5-33.437-.5-33.438-7-1.142c-3.85-.628-8.915-1.435-11.256-1.793l-4.256-.651zM374.616 92.421 360.733 94.5l-12.862 47c-7.075 25.85-13.146 48.496-13.492 50.325-.798 4.214-1.725 3.127-3.247-3.806-1.204-5.481-24.103-83.183-24.726-83.897-.181-.208-6.872.897-14.868 2.456L277 109.412v78.862c0 74.629.094 78.834 1.75 78.362.962-.274 4.45-.997 7.75-1.606s7.012-1.325 8.25-1.588l2.25-.48.048-60.231.048-60.231 2.289 8.5c2.666 9.899 31.81 107.299 32.291 107.917.178.229.581.159.896-.156.42-.419 27.656-97.375 35.152-125.135.427-1.581.644 23.956.482 56.75-.281 56.792-.21 59.624 1.5 59.616 1.866-.007 12.763-1.617 17.544-2.591l2.75-.56V168.98c0-42.824-.337-78.037-.75-78.25-.413-.214-6.998.547-14.634 1.691m199.884.514c-5.014 1.221-9.127 3.811-12.724 8.014-6.016 7.028-6.125 7.853-6.524 49.311-.397 41.362.127 46.615 5.335 53.443 5.132 6.729 16.156 9.758 26.49 7.279 4.081-.98 6.384-2.348 9.947-5.911 7.804-7.803 8.159-10.364 7.788-56.071l-.312-38.5-2.761-5.621c-4.868-9.914-15.831-14.721-27.239-11.944M677 116.848V140h14.599c22.817 0 24.401-1.396 24.401-21.503 0-20.983-2.063-22.948-25.316-24.115L677 93.696zm-224.5-13.45-10 1.102-.269 23.314-.268 23.314 4.268-.563c2.348-.309 8.88-1.036 14.516-1.614 15.968-1.638 20.282-4.325 22.339-13.919 1.637-7.63.733-24.133-1.509-27.554-3.574-5.455-9.302-6.258-29.077-4.08m548.744 84.774.256 78.172 10 2.28c5.5 1.254 10.788 2.301 11.75 2.328 1.652.045 1.75-4.332 1.75-78.312v-78.36l-10.75-2.141c-5.913-1.177-11.315-2.14-12.006-2.14-1 .001-1.204 15.964-1 78.173M1053 199.466v78.288l8.464 2.123c4.655 1.168 9.169 2.123 10.031 2.123 1.408 0 1.538-5.928 1.286-58.417-.155-32.13-.163-58.3-.019-58.155.143.144 1.268 3.61 2.5 7.703 1.231 4.092 11.443 33.135 22.694 64.539l20.456 57.099 11.132 3.115c6.122 1.714 11.655 3.116 12.294 3.116.873 0 1.162-19.397 1.162-77.958v-77.957l-6.823-2.032c-3.752-1.118-8.252-2.318-10-2.668l-3.177-.635-.046 54.875-.045 54.875-3.284-10.5c-3.763-12.03-37.351-107.688-38.589-109.901-.451-.805-4.356-2.306-8.678-3.335a9891 9891 0 0 0-13.608-3.229l-5.75-1.358zm-844.975-74.091-12.474 3.223-19.615 83.451c-10.788 45.898-19.518 83.583-19.4 83.744.282.382 21.545-5.541 22.183-6.179.269-.268 2.383-9.383 4.7-20.255l4.211-19.767 20.935-5.268c11.514-2.897 21.255-5.281 21.646-5.296s1.149 1.66 1.682 3.722c.534 2.063 2.628 10.107 4.653 17.876l3.682 14.126 8.636-1.919c4.75-1.056 9.874-2.181 11.386-2.501 1.64-.347 2.746-1.238 2.739-2.207-.005-.894-8.689-34.025-19.297-73.625-16.964-63.33-19.522-72.021-21.239-72.174-1.074-.095-7.567 1.277-14.428 3.049M95.5 155.459l-10 3.25-.256 79.145c-.141 43.531.075 79.146.479 79.146.654 0 41.174-12.388 55.277-16.899l5.5-1.76.511-10.42c.281-5.732.424-10.578.319-10.769-.106-.191-8.886 2.315-19.511 5.571l-19.319 5.918-.257-68.32c-.202-53.718-.522-68.299-1.5-68.217-.684.057-5.743 1.567-11.243 3.355m1075.744 76.348.256 78.63 10 3.212c5.5 1.767 10.563 3.244 11.25 3.282.99.055 1.25-16.261 1.25-78.431 0-43.175-.338-78.507-.75-78.517s-5.59-1.544-11.506-3.411l-10.756-3.395zM208.641 155c-1.326 3.357-15.768 71.206-15.264 71.71.602.603 30.691-6.598 31.85-7.622.401-.354-2.88-14.806-7.29-32.115-9.294-36.481-8.54-33.888-9.296-31.973m244.609 13.294-11.25.978v49.986l9.25-.696c22.282-1.677 28.511-3.49 32.487-9.46 2.097-3.149 2.263-4.488 2.263-18.3 0-24.454-1.16-25.251-32.75-22.508M668 275.587c-38.419 4.582-60.971 12.988-78.04 29.09-16.854 15.898-17.548 33.273-1.749 43.762 11.077 7.355 29.224 12.179 56.289 14.963 34.136 3.512 47.574 3.998 113.5 4.107 69.477.115 71.429.221 85.84 4.666 15.643 4.826 24.187 11.157 29.566 21.911 6.29 12.572 7.173 26.019 2.521 38.402-2.986 7.951-6.58 11.512-11.62 11.512-6.178 0-25.717-5.836-83.807-25.03-37.893-12.52-47.236-14.938-60.526-15.66-19.036-1.035-24.536 1.236-60.072 24.8-32.944 21.846-35.645 23.502-65.984 40.457-36.224 20.245-43.114 24.645-52.257 33.374-17.221 16.441-23.416 30.323-32.157 72.059-9.957 47.54-16.955 63.933-39.914 93.5-8.714 11.223-13.141 18.022-17.579 27-8.748 17.697-9.109 19.555-10.015 51.5-.905 31.899-1.035 32.563-12.083 61.729-12.576 33.201-12.121 30.785-12.93 68.771-.846 39.764-.616 38.611-11.256 56.379-2.759 4.609-5.836 10.533-6.836 13.166-2.867 7.546-5.849 23.851-6.718 36.731-1.065 15.803-2.214 17.966-19.288 36.313-14.978 16.094-17.688 19.762-20.525 27.78-1.406 3.975-3.216 6.439-7.419 10.097-3.462 3.013-6.836 7.232-8.946 11.186-3.075 5.762-3.384 7.101-3.34 14.51.038 6.538.525 9.125 2.446 13 3.643 7.347 5.111 6.988 14.803-3.616 4.547-4.975 8.918-9.046 9.713-9.046 3.092 0 2.454 3.509-2.557 14.062-2.859 6.02-5.054 11.94-4.879 13.155.419 2.902 5.096 3.96 14.319 3.239 13.46-1.052 23.42-4.45 28.158-9.607 2.791-3.037 7.007-16.849 8.718-28.558 1.168-7.998 1.777-9.702 4.629-12.949 6.621-7.541 8.905-17.094 8.964-37.487.04-13.889 2.249-21.295 8.607-28.855 7.549-8.978 17.888-25.175 23.759-37.225 3.022-6.201 10.043-22.469 15.603-36.151s12.669-29.882 15.798-36c15.713-30.725 35.865-51.55 42.457-43.874 4.153 4.835 4.922 12.945 3.047 32.123-1.876 19.184-1.326 23.487 4.167 32.568 4.616 7.633 4.64 11.549.145 24.125-6.678 18.685-15.288 30.699-28.906 40.335-4.842 3.426-8.534 6.939-10.098 9.608-2.872 4.899-5.142 6.555-12.18 8.879-5.668 1.871-13.165 6.805-16.16 10.635-3.356 4.289-7.167 12.705-8.7 19.208-1.88 7.972-1.938 20.805-.114 25.17 1.317 3.152 4.955 6.599 6.965 6.599.503 0 4.629-3.825 9.169-8.5s8.993-8.5 9.895-8.5c3.239 0 2.704 3.101-1.854 10.736-5.666 9.493-6.374 11.888-4.163 14.099 2.481 2.481 19.088 2.323 26.955-.257 13.413-4.398 22.892-13.609 24.141-23.458.322-2.541.806-6.051 1.074-7.8.269-1.749 2.305-5.349 4.526-8 5.517-6.587 7.841-11.473 13.323-28.015 5.667-17.099 9.537-23.455 21.551-35.388 12.921-12.836 21.039-24.975 28.013-41.89 5.504-13.349 10.405-16.505 25.654-16.518 8.577-.008 10.467.285 12.25 1.896 1.159 1.048 2.107 2.7 2.107 3.671 0 .972-2.298 5.739-5.107 10.595s-7.038 12.654-9.398 17.329c-4.663 9.239-6.204 10.963-14.495 16.213-14.213 9.001-23.158 25.416-23.4 42.944-.082 5.925 2.001 9.843 5.233 9.843.838 0 4.992-3.375 9.23-7.5 7.405-7.205 10.073-8.708 11.465-6.455.355.575-1.164 4.092-3.375 7.815-5.416 9.115-5.941 11.475-3.011 13.527 3.097 2.169 9.861 2.042 19.262-.362 13.276-3.396 25.372-11.33 32.137-21.079 2.945-4.244 2.962-4.347 3.535-22.355.398-12.531 1.115-20.089 2.331-24.591 4.824-17.866 16.581-32.539 21.41-26.721.583.703 3.608 7.341 6.721 14.75 9.614 22.88 15.145 33.452 19.616 37.491 7.199 6.504 8.754 6.799 31.568 5.984 13.754-.491 25.187-.315 35.666.55l15.422 1.274 5.451-2.667c6.718-3.287 23.008-19.72 25.71-25.935 1.475-3.394 1.834-6.786 1.822-17.226-.017-13.976 1.489-22.737 5.798-33.732 7.401-18.886 22.508-35.431 41.902-45.892 6.427-3.467 8.277-4.036 11.651-3.583 5.153.691 6.92 2.37 12.803 12.165 18.04 30.036 24.506 53.665 18.921 69.135-2.557 7.082-2.915 18.239-.751 23.407 2.33 5.566.811 14.112-4.749 26.71-7.767 17.601-6.487 22.271 8.028 29.297 4.537 2.196 9.394 3.993 10.791 3.993 2.265 0 2.61-.504 3.177-4.64.35-2.551.643-6.264.651-8.25.034-7.827 3.908-8.119 5.985-.451 2.773 10.238 3.979 12.341 7.074 12.341 3.557 0 9.064-4.673 12.583-10.677 4.932-8.416 4.042-22.09-2.245-34.497-2.421-4.778-2.582-5.838-1.962-12.95.602-6.899.326-8.974-2.53-19-3.074-10.792-3.18-11.77-2.603-23.815.664-13.854 3.676-35.309 9.134-65.061 4.742-25.851 5.198-31.255 3.214-38.08-2.297-7.901-5.766-11.934-22.332-25.961-15.586-13.198-19.327-18.067-20.907-27.209-.598-3.459-.466-3.749 1.713-3.74 4.38.018 12.301 4.631 23.861 13.897 18.72 15.006 31.616 21.451 48.279 24.127 21.063 3.384 48.073-6.086 58.943-20.664 5.225-7.008 3.172-8.112-6.244-3.359-12.553 6.337-24.004 7.53-34.978 3.646-12.473-4.416-18.341-9.218-32.075-26.251-11.092-13.755-16.03-18.368-24.005-22.425-7.578-3.855-15.528-5.773-27.377-6.606-9.102-.639-10.852-1.118-20.377-5.577-26.991-12.636-54.132-19.407-80.561-20.098-12.453-.325-12.973-.426-15.131-2.936-1.23-1.429-3.476-5.899-4.992-9.931-4.533-12.06-13.321-28.438-18.129-33.785-3.269-3.636-5.652-5.301-8.68-6.065-11.283-2.847-15.863-5.814-17.182-11.131-.552-2.224.156-3.546 4.426-8.261 7.949-8.776 7.055-12.175-5.411-20.587-4.047-2.731-7.675-5.961-8.061-7.176-1.62-5.104 8.802-9.151 17.626-6.844 5.912 1.546 13.868 6.878 18.191 12.191 8.034 9.873 29.341 45.026 39.063 64.447 2.512 5.017 5.303 9.405 6.203 9.75 2.205.847 14.472.803 14.472-.051 0-1.08-13.675-46.29-19.153-63.321-19.242-59.825-36.149-98.937-56.11-129.809-7.286-11.269-6.973-12.364 2.787-9.722 4.222 1.143 8.657 3.302 12.291 5.984 10.656 7.865 16.396 16.633 32.162 49.135 14.984 30.888 23.902 44.167 33.969 50.58 12.226 7.788 21.068-.508 24.17-22.679 2.159-15.438-1.58-36.32-8.941-49.936-1.471-2.721-6.387-8.855-10.925-13.631S847 470.54 847 469.687c0-2.485 3.282-2.863 10.956-1.263 13.999 2.919 30.857 13.279 39.477 24.261 2.406 3.066 6.626 9.904 9.378 15.195 10.767 20.705 12.016 32.484 5.577 52.62-3.568 11.162-3.837 12.838-3.838 24-.001 10.868.294 12.849 3.133 21 13.047 37.468 13.511 39.021 14.023 47 .496 7.743.347 8.446-4.644 21.882-2.837 7.635-5.019 14.61-4.849 15.5.261 1.366 2.565 1.717 14.798 2.253 14.566.638 18.329 1.447 26.782 5.759 3.054 1.558 4.288 1.784 4.843.886.409-.662.737-5.496.728-10.742-.015-8.706-.376-10.497-4.136-20.538-7.379-19.702-7.581-22.427-2.728-36.931 2.639-7.888 3.498-12.135 3.493-17.265-.021-20.504-16.614-60.964-52.385-127.739-5.284-9.865-9.608-18.924-9.608-20.131s1.578-6.555 3.507-11.883c8.46-23.371 8.581-45.258.345-62.338-4.684-9.713-18.642-23.457-28.852-28.409-23.129-11.218-48.253-13.656-107.5-10.429-61.12 3.328-93.733 3.083-121.379-.912-22.402-3.237-37.43-8.641-41.193-14.813-4.151-6.808-.94-17.745 7.48-25.476 6.386-5.863 11.709-8.125 19.185-8.152 7.844-.028 13.005 1.828 34.257 12.317 19.275 9.513 31.26 13.855 44.531 16.135 18.109 3.111 38.562.855 51.585-5.69 10.368-5.211 9.524-6.252-6.174-7.621-20.344-1.773-33.934-5.219-34.168-8.663-.292-4.302 18.012-5.387 58.628-3.476 15.263.718 28.088.966 28.5.551 2.342-2.362-17.918-12.198-37.042-17.984-27.124-8.205-53.019-12.434-79.71-13.017-10.175-.222-20.075-.216-22 .013M549.192 548.676c-5.73 2.824-7.011 6.972-9.764 31.625-4.26 38.148-5.77 44.965-14.637 66.081-8.974 21.369-6.067 28.106 7.831 18.149 14.8-10.603 22.844-13.886 29.769-12.148 1.38.347 6.203 3.16 10.717 6.251 11.418 7.82 17.726 10.532 24.882 10.696 7.272.167 11.01-2.567 11.01-8.054 0-4.66-1.505-7.211-12.003-20.34-14.884-18.613-21.343-33.795-27.54-64.726-3.869-19.311-5.151-23.095-9.052-26.711-3.112-2.884-6.523-3.134-11.213-.823m147.133 125.715c-12.111 5.527-8.106 27.5 8.953 49.118 8.962 11.357 12.39 16.568 14.558 22.127 4.411 11.308 3.707 19.421-3.314 38.209-10.554 28.238-24.364 78.947-22.58 82.905.559 1.237 1.755 2.25 2.659 2.25.905 0 6.116-3.6 11.581-8 13.61-10.958 16.799-10.639 16.835 1.684.01 3.199.456 9.981.993 15.071 2.727 25.888 8.531 39.245 17.052 39.245 4.283 0 6.37-3.617 12.008-20.808 4.831-14.734 5.095-16.078 4.772-24.308-.342-8.707-.344-8.714-5.593-16.047-2.888-4.036-7.163-10.478-9.5-14.316-3.957-6.499-4.249-7.473-4.249-14.164 0-6.393.336-7.663 3.048-11.521 1.676-2.385 3.654-4.336 4.395-4.336s1.942 2.025 2.669 4.5c1.872 6.372 6.777 11.84 13.15 14.658 7.172 3.172 6.499 5.109-2.563 7.372-2.366.591-4.55 1.721-4.853 2.511-.31.808 1.683 4.451 4.551 8.32 10.659 14.378 12.096 22.634 7.204 41.385-1.685 6.461-5.322 17.666-8.083 24.901-2.76 7.236-5.018 13.435-5.018 13.777s1.567 1.465 3.482 2.497c5.337 2.874 7.814 8.874 7.372 17.86l-.354 7.219 10.5.719c6.567.45 11.708.33 13.726-.319 3.518-1.133 16.03-11.877 17.998-15.454.766-1.392 1.37-8.166 1.612-18.086.452-18.436 2.235-26.463 9.077-40.86 10.197-21.457 27.444-38.401 49.928-49.052l9.545-4.521 6.483-11.214c11.576-20.022 16.442-34.829 15.362-46.744-.714-7.869-3.76-12.829-12.962-21.106-6.69-6.019-7.539-7.215-9.101-12.832-5.176-18.619-16.645-30.998-34.375-37.104-7.173-2.471-21.873-4.918-29.574-4.923-7.931-.005-8.313 1.617-1.962 8.333 8.776 9.278 10.546 15.885 5.669 21.149-2.552 2.754-2.652 2.772-11.75 2.148-10.814-.741-16.038.274-19.566 3.802-3.055 3.055-3.326 8.312-.691 13.407 4.634 8.962 19.158 17.703 34.44 20.728 12.541 2.482 31.971 1.613 42.641-1.906 9.342-3.082 9.5-3.103 9.5-1.25 0 4.477-21.386 16.526-33.994 19.152-8.78 1.829-27.178 2.034-36.174.402-28.347-5.14-51.59-20.563-61.647-40.908-3.379-6.833-3.685-8.165-3.685-16.007 0-10.287 2.171-15.56 9.298-22.587C752.771 694.593 770.045 687 778.71 687c3.145 0 3.091-4.29-.095-7.476-5.311-5.31-13.801-5.531-30.387-.789-10.447 2.987-12.292 2.829-26.193-2.234-9.114-3.32-20.932-4.29-25.71-2.11M647.5 726.156c-24.054 10.85-36.735 13.947-57 13.921-14.993-.02-25.839-1.61-41.973-6.155-9.439-2.659-11.725-3.002-12.991-1.952-1.979 1.643-1.981 8.518-.003 16.906 1.712 7.263 1.365 8.115-4.526 11.12-5.167 2.637-13.313 4.583-31.373 7.498-17.735 2.862-23.125 4.986-28.912 11.392-8.691 9.62-13.209 24.629-17.643 58.614-1.077 8.25-2.261 18.825-2.632 23.5-.614 7.746-.494 8.662 1.351 10.325 3.445 3.104 7.263 1.859 10.702-3.492 1.65-2.567 5.821-9.092 9.269-14.5 11.314-17.748 23.851-30.342 34.961-35.121 7.862-3.383 16.489-4.171 45.88-4.192 26.844-.02 36.39.515 36.39 2.039 0 2.111-5.643 7.031-11.739 10.234-8.213 4.316-17.738 7.06-30.339 8.74-5.182.691-9.566 1.373-9.742 1.515s.593 2.047 1.709 4.234c3.283 6.435 4.053 14.359 2.981 30.667-1.164 17.705-.263 23.843 4.116 28.037 2.759 2.644 3.274 2.76 10.21 2.302 6.059-.4 9.86-1.547 22.304-6.732 8.25-3.438 18.201-7.307 22.114-8.598 19.119-6.309 44.984-5.438 60.806 2.048 5.74 2.715 8.58 3.152 8.58 1.321 0-.645-5.806-14.032-12.901-29.75-23.794-52.704-25.058-56.251-25.084-70.433-.035-18.219 6.134-30.667 24.669-49.784 8.288-8.547 10.316-11.212 10.316-13.55 0-6.814-4.654-6.851-19.5-.154m271.65 76.452c-1.197.838-3.136 3.407-4.308 5.708-1.173 2.301-4.992 8.949-8.487 14.772-3.982 6.636-6.355 11.691-6.355 13.542 0 5.026 18.658 35.705 24.125 39.67 3.591 2.604 6.178 1.077 8.538-5.039 1.533-3.973 1.835-7.658 1.828-22.261-.015-28.034-3.748-42.658-12.078-47.31-.598-.333-2.066.079-3.263.918M719.18 922.309c-4.661 4.96-4.411 17.555.505 25.492 3.881 6.265 9.629 9.199 18.022 9.199 10.124 0 14.293-3.072 14.293-10.533 0-2.81-.724-4.341-3.106-6.566-1.708-1.595-3.491-2.901-3.962-2.901s-3.397-.95-6.501-2.112c-5.05-1.889-6.064-2.783-9.649-8.5-4.367-6.965-6.171-7.732-9.602-4.079"/><path fill="#0c0c0b" fill-rule="evenodd" d="M599 19.684c-191.08 3.498-374.523 35.931-510.409 90.241-45.988 18.38-62.037 36.569-67.565 76.575-3.677 26.613-1.26 121.788 5.004 197 20.894 250.88 89.733 464.286 209.522 649.531 83.021 128.386 195.094 246.2 334.02 351.129 20.751 15.674 28.707 20.973 39.936 26.603 23.897 11.983 41.765 10.714 69.16-4.911 13.43-7.66 66.668-48.741 102.832-79.35 218.66-185.074 357.878-405.156 427.468-675.762 25.15-97.795 40.962-203.749 47.494-318.24 2.139-37.502 3.881-106.533 3.127-123.889-2.501-57.507-16.651-77.692-69.18-98.686-46.232-18.478-100.557-35.349-154.252-47.904C904.394 31.212 755.73 16.814 599 19.684M566.813 72.47c-12.933 3.562-23.82 12.468-29.229 23.911-5.917 12.517-6.084 14.122-6.084 58.619 0 36.47.183 41.097 1.838 46.5 5.411 17.658 16.96 27.916 35.105 31.178 13.087 2.353 27.502.06 37.888-6.026 5.571-3.265 13.794-12.212 16.654-18.122 5.077-10.486 5.317-12.688 5.752-52.662.451-41.359-.26-49.777-5.089-60.325-5.017-10.958-15.84-19.795-28.183-23.01-7.072-1.842-22.074-1.875-28.652-.063m86.431 78.649.256 78.381 11.75.282 11.75.281V160h15.554l13.502 35.75 13.502 35.75 12.449.689c6.847.379 12.552.585 12.678.459.127-.127-6.232-17.005-14.131-37.507-12.212-31.699-14.114-37.362-12.708-37.844 9.715-3.328 15.978-8.525 19.531-16.208 1.928-4.168 2.123-6.331 2.123-23.589 0-18.77-.034-19.069-2.79-24.682-4.345-8.847-11.419-14.108-23.43-17.423-4.355-1.203-12.497-1.727-33.036-2.127l-27.256-.53zm136.243-71.32c-15.183 5.25-24.659 16.085-28.047 32.07-2.061 9.727-2.009 78.759.067 88.631 2.138 10.164 6.689 18.411 14.073 25.501 10.266 9.858 21.45 13.968 38.065 13.987 12.352.015 21.095-2.38 28.036-7.678 5.955-4.545 7.733-6.601 10.852-12.543 4.798-9.144 5.467-14.213 5.467-41.458v-25.271l-2.25-.467c-3.366-.7-38.263-4.571-41.202-4.571H812v19.841l6.75.71c3.712.391 8.775.998 11.25 1.349l4.5.637-.044 15.982c-.039 14.006-.302 16.551-2.131 20.589-4.56 10.068-16.767 14.372-29.711 10.476-9.99-3.006-16.678-11.106-18.605-22.532-.761-4.51-1.04-18.728-.828-42.177.361-40.062.486-40.761 8.561-48.034 6.738-6.069 18.985-7.136 28.059-2.444 7.222 3.735 12.814 12.833 14.661 23.853.436 2.598 1.152 3.761 2.333 3.786.938.02 6.093.615 11.455 1.322l9.75 1.286v-3.662c0-5.784-3.647-18.539-7.225-25.268-6.271-11.792-17.795-20.661-31.478-24.225-7.902-2.058-23.429-1.897-29.81.31m-321.987.919c-2.2.187-13.597 1.451-25.326 2.811S420.208 86 419.424 86c-1.22 0-1.424 11.242-1.424 78.5V243h2.421c4.831 0 55.781-6.021 60.368-7.134 12.172-2.954 21.514-9.683 25.88-18.642 2.705-5.551 2.8-6.303 3.152-24.94.296-15.723.069-20.1-1.252-24.076-1.889-5.686-6.584-10.626-11.827-12.441l-3.72-1.287 4.691-3.49c2.851-2.122 5.689-5.44 7.239-8.463 2.409-4.701 2.548-5.821 2.543-20.5-.005-19.523-1.397-24.885-8.286-31.942-6.989-7.158-18.31-10.502-31.709-9.367m415.744 87.019.256 78.763 9 1.164c4.95.64 10.007 1.203 11.237 1.25l2.237.086.263-34.795.263-34.794 21.237 3.418 21.238 3.418.262 35.114.263 35.113 11.256 2.108 11.256 2.107-.256-78.567-.256-78.568-10-1.715c-5.5-.943-10.562-1.743-11.25-1.777-.976-.048-1.25 7.172-1.25 32.938v33l-2.25-.062c-1.237-.035-10.8-1.512-21.25-3.283l-19-3.22-.5-33.437-.5-33.438-7-1.142c-3.85-.628-8.915-1.435-11.256-1.793l-4.256-.651zM374.616 92.421 360.733 94.5l-12.862 47c-7.075 25.85-13.146 48.496-13.492 50.325-.798 4.214-1.725 3.127-3.247-3.806-1.204-5.481-24.103-83.183-24.726-83.897-.181-.208-6.872.897-14.868 2.456L277 109.412v78.862c0 74.629.094 78.834 1.75 78.362.962-.274 4.45-.997 7.75-1.606s7.012-1.325 8.25-1.588l2.25-.48.048-60.231.048-60.231 2.289 8.5c2.666 9.899 31.81 107.299 32.291 107.917.178.229.581.159.896-.156.42-.419 27.656-97.375 35.152-125.135.427-1.581.644 23.956.482 56.75-.281 56.792-.21 59.624 1.5 59.616 1.866-.007 12.763-1.617 17.544-2.591l2.75-.56V168.98c0-42.824-.337-78.037-.75-78.25-.413-.214-6.998.547-14.634 1.691m199.884.514c-5.014 1.221-9.127 3.811-12.724 8.014-6.016 7.028-6.125 7.853-6.524 49.311-.397 41.362.127 46.615 5.335 53.443 5.132 6.729 16.156 9.758 26.49 7.279 4.081-.98 6.384-2.348 9.947-5.911 7.804-7.803 8.159-10.364 7.788-56.071l-.312-38.5-2.761-5.621c-4.868-9.914-15.831-14.721-27.239-11.944M677 116.848V140h14.599c22.817 0 24.401-1.396 24.401-21.503 0-20.983-2.063-22.948-25.316-24.115L677 93.696zm-224.5-13.45-10 1.102-.269 23.314-.268 23.314 4.268-.563c2.348-.309 8.88-1.036 14.516-1.614 15.968-1.638 20.282-4.325 22.339-13.919 1.637-7.63.733-24.133-1.509-27.554-3.574-5.455-9.302-6.258-29.077-4.08m548.744 84.774.256 78.172 10 2.28c5.5 1.254 10.788 2.301 11.75 2.328 1.652.045 1.75-4.332 1.75-78.312v-78.36l-10.75-2.141c-5.913-1.177-11.315-2.14-12.006-2.14-1 .001-1.204 15.964-1 78.173M1053 199.466v78.288l8.464 2.123c4.655 1.168 9.169 2.123 10.031 2.123 1.408 0 1.538-5.928 1.286-58.417-.155-32.13-.163-58.3-.019-58.155.143.144 1.268 3.61 2.5 7.703 1.231 4.092 11.443 33.135 22.694 64.539l20.456 57.099 11.132 3.115c6.122 1.714 11.655 3.116 12.294 3.116.873 0 1.162-19.397 1.162-77.958v-77.957l-6.823-2.032c-3.752-1.118-8.252-2.318-10-2.668l-3.177-.635-.046 54.875-.045 54.875-3.284-10.5c-3.763-12.03-37.351-107.688-38.589-109.901-.451-.805-4.356-2.306-8.678-3.335a9891 9891 0 0 0-13.608-3.229l-5.75-1.358zm-844.975-74.091-12.474 3.223-19.615 83.451c-10.788 45.898-19.518 83.583-19.4 83.744.282.382 21.545-5.541 22.183-6.179.269-.268 2.383-9.383 4.7-20.255l4.211-19.767 20.935-5.268c11.514-2.897 21.255-5.281 21.646-5.296s1.149 1.66 1.682 3.722c.534 2.063 2.628 10.107 4.653 17.876l3.682 14.126 8.636-1.919c4.75-1.056 9.874-2.181 11.386-2.501 1.64-.347 2.746-1.238 2.739-2.207-.005-.894-8.689-34.025-19.297-73.625-16.964-63.33-19.522-72.021-21.239-72.174-1.074-.095-7.567 1.277-14.428 3.049M95.5 155.459l-10 3.25-.256 79.145c-.141 43.531.075 79.146.479 79.146.654 0 41.174-12.388 55.277-16.899l5.5-1.76.511-10.42c.281-5.732.424-10.578.319-10.769-.106-.191-8.886 2.315-19.511 5.571l-19.319 5.918-.257-68.32c-.202-53.718-.522-68.299-1.5-68.217-.684.057-5.743 1.567-11.243 3.355m1075.744 76.348.256 78.63 10 3.212c5.5 1.767 10.563 3.244 11.25 3.282.99.055 1.25-16.261 1.25-78.431 0-43.175-.338-78.507-.75-78.517s-5.59-1.544-11.506-3.411l-10.756-3.395zM208.641 155c-1.326 3.357-15.768 71.206-15.264 71.71.602.603 30.691-6.598 31.85-7.622.401-.354-2.88-14.806-7.29-32.115-9.294-36.481-8.54-33.888-9.296-31.973m244.609 13.294-11.25.978v49.986l9.25-.696c22.282-1.677 28.511-3.49 32.487-9.46 2.097-3.149 2.263-4.488 2.263-18.3 0-24.454-1.16-25.251-32.75-22.508M668 275.587c-38.419 4.582-60.971 12.988-78.04 29.09-16.854 15.898-17.548 33.273-1.749 43.762 11.077 7.355 29.224 12.179 56.289 14.963 34.136 3.512 47.574 3.998 113.5 4.107 69.477.115 71.429.221 85.84 4.666 15.643 4.826 24.187 11.157 29.566 21.911 6.29 12.572 7.173 26.019 2.521 38.402-2.986 7.951-6.58 11.512-11.62 11.512-6.178 0-25.717-5.836-83.807-25.03-37.893-12.52-47.236-14.938-60.526-15.66-19.036-1.035-24.536 1.236-60.072 24.8-32.944 21.846-35.645 23.502-65.984 40.457-36.224 20.245-43.114 24.645-52.257 33.374-17.221 16.441-23.416 30.323-32.157 72.059-9.957 47.54-16.955 63.933-39.914 93.5-8.714 11.223-13.141 18.022-17.579 27-8.748 17.697-9.109 19.555-10.015 51.5-.905 31.899-1.035 32.563-12.083 61.729-12.576 33.201-12.121 30.785-12.93 68.771-.846 39.764-.616 38.611-11.256 56.379-2.759 4.609-5.836 10.533-6.836 13.166-2.867 7.546-5.849 23.851-6.718 36.731-1.065 15.803-2.214 17.966-19.288 36.313-14.978 16.094-17.688 19.762-20.525 27.78-1.406 3.975-3.216 6.439-7.419 10.097-3.462 3.013-6.836 7.232-8.946 11.186-3.075 5.762-3.384 7.101-3.34 14.51.038 6.538.525 9.125 2.446 13 3.643 7.347 5.111 6.988 14.803-3.616 4.547-4.975 8.918-9.046 9.713-9.046 3.092 0 2.454 3.509-2.557 14.062-2.859 6.02-5.054 11.94-4.879 13.155.419 2.902 5.096 3.96 14.319 3.239 13.46-1.052 23.42-4.45 28.158-9.607 2.791-3.037 7.007-16.849 8.718-28.558 1.168-7.998 1.777-9.702 4.629-12.949 6.621-7.541 8.905-17.094 8.964-37.487.04-13.889 2.249-21.295 8.607-28.855 7.549-8.978 17.888-25.175 23.759-37.225 3.022-6.201 10.043-22.469 15.603-36.151s12.669-29.882 15.798-36c15.713-30.725 35.865-51.55 42.457-43.874 4.153 4.835 4.922 12.945 3.047 32.123-1.876 19.184-1.326 23.487 4.167 32.568 4.616 7.633 4.64 11.549.145 24.125-6.678 18.685-15.288 30.699-28.906 40.335-4.842 3.426-8.534 6.939-10.098 9.608-2.872 4.899-5.142 6.555-12.18 8.879-5.668 1.871-13.165 6.805-16.16 10.635-3.356 4.289-7.167 12.705-8.7 19.208-1.88 7.972-1.938 20.805-.114 25.17 1.317 3.152 4.955 6.599 6.965 6.599.503 0 4.629-3.825 9.169-8.5s8.993-8.5 9.895-8.5c3.239 0 2.704 3.101-1.854 10.736-5.666 9.493-6.374 11.888-4.163 14.099 2.481 2.481 19.088 2.323 26.955-.257 13.413-4.398 22.892-13.609 24.141-23.458.322-2.541.806-6.051 1.074-7.8.269-1.749 2.305-5.349 4.526-8 5.517-6.587 7.841-11.473 13.323-28.015 5.667-17.099 9.537-23.455 21.551-35.388 12.921-12.836 21.039-24.975 28.013-41.89 5.504-13.349 10.405-16.505 25.654-16.518 8.577-.008 10.467.285 12.25 1.896 1.159 1.048 2.107 2.7 2.107 3.671 0 .972-2.298 5.739-5.107 10.595s-7.038 12.654-9.398 17.329c-4.663 9.239-6.204 10.963-14.495 16.213-14.213 9.001-23.158 25.416-23.4 42.944-.082 5.925 2.001 9.843 5.233 9.843.838 0 4.992-3.375 9.23-7.5 7.405-7.205 10.073-8.708 11.465-6.455.355.575-1.164 4.092-3.375 7.815-5.416 9.115-5.941 11.475-3.011 13.527 3.097 2.169 9.861 2.042 19.262-.362 13.276-3.396 25.372-11.33 32.137-21.079 2.945-4.244 2.962-4.347 3.535-22.355.398-12.531 1.115-20.089 2.331-24.591 4.824-17.866 16.581-32.539 21.41-26.721.583.703 3.608 7.341 6.721 14.75 9.614 22.88 15.145 33.452 19.616 37.491 7.199 6.504 8.754 6.799 31.568 5.984 13.754-.491 25.187-.315 35.666.55l15.422 1.274 5.451-2.667c6.718-3.287 23.008-19.72 25.71-25.935 1.475-3.394 1.834-6.786 1.822-17.226-.017-13.976 1.489-22.737 5.798-33.732 7.401-18.886 22.508-35.431 41.902-45.892 6.427-3.467 8.277-4.036 11.651-3.583 5.153.691 6.92 2.37 12.803 12.165 18.04 30.036 24.506 53.665 18.921 69.135-2.557 7.082-2.915 18.239-.751 23.407 2.33 5.566.811 14.112-4.749 26.71-7.767 17.601-6.487 22.271 8.028 29.297 4.537 2.196 9.394 3.993 10.791 3.993 2.265 0 2.61-.504 3.177-4.64.35-2.551.643-6.264.651-8.25.034-7.827 3.908-8.119 5.985-.451 2.773 10.238 3.979 12.341 7.074 12.341 3.557 0 9.064-4.673 12.583-10.677 4.932-8.416 4.042-22.09-2.245-34.497-2.421-4.778-2.582-5.838-1.962-12.95.602-6.899.326-8.974-2.53-19-3.074-10.792-3.18-11.77-2.603-23.815.664-13.854 3.676-35.309 9.134-65.061 4.742-25.851 5.198-31.255 3.214-38.08-2.297-7.901-5.766-11.934-22.332-25.961-15.586-13.198-19.327-18.067-20.907-27.209-.598-3.459-.466-3.749 1.713-3.74 4.38.018 12.301 4.631 23.861 13.897 18.72 15.006 31.616 21.451 48.279 24.127 21.063 3.384 48.073-6.086 58.943-20.664 5.225-7.008 3.172-8.112-6.244-3.359-12.553 6.337-24.004 7.53-34.978 3.646-12.473-4.416-18.341-9.218-32.075-26.251-11.092-13.755-16.03-18.368-24.005-22.425-7.578-3.855-15.528-5.773-27.377-6.606-9.102-.639-10.852-1.118-20.377-5.577-26.991-12.636-54.132-19.407-80.561-20.098-12.453-.325-12.973-.426-15.131-2.936-1.23-1.429-3.476-5.899-4.992-9.931-4.533-12.06-13.321-28.438-18.129-33.785-3.269-3.636-5.652-5.301-8.68-6.065-11.283-2.847-15.863-5.814-17.182-11.131-.552-2.224.156-3.546 4.426-8.261 7.949-8.776 7.055-12.175-5.411-20.587-4.047-2.731-7.675-5.961-8.061-7.176-1.62-5.104 8.802-9.151 17.626-6.844 5.912 1.546 13.868 6.878 18.191 12.191 8.034 9.873 29.341 45.026 39.063 64.447 2.512 5.017 5.303 9.405 6.203 9.75 2.205.847 14.472.803 14.472-.051 0-1.08-13.675-46.29-19.153-63.321-19.242-59.825-36.149-98.937-56.11-129.809-7.286-11.269-6.973-12.364 2.787-9.722 4.222 1.143 8.657 3.302 12.291 5.984 10.656 7.865 16.396 16.633 32.162 49.135 14.984 30.888 23.902 44.167 33.969 50.58 12.226 7.788 21.068-.508 24.17-22.679 2.159-15.438-1.58-36.32-8.941-49.936-1.471-2.721-6.387-8.855-10.925-13.631S847 470.54 847 469.687c0-2.485 3.282-2.863 10.956-1.263 13.999 2.919 30.857 13.279 39.477 24.261 2.406 3.066 6.626 9.904 9.378 15.195 10.767 20.705 12.016 32.484 5.577 52.62-3.568 11.162-3.837 12.838-3.838 24-.001 10.868.294 12.849 3.133 21 13.047 37.468 13.511 39.021 14.023 47 .496 7.743.347 8.446-4.644 21.882-2.837 7.635-5.019 14.61-4.849 15.5.261 1.366 2.565 1.717 14.798 2.253 14.566.638 18.329 1.447 26.782 5.759 3.054 1.558 4.288 1.784 4.843.886.409-.662.737-5.496.728-10.742-.015-8.706-.376-10.497-4.136-20.538-7.379-19.702-7.581-22.427-2.728-36.931 2.639-7.888 3.498-12.135 3.493-17.265-.021-20.504-16.614-60.964-52.385-127.739-5.284-9.865-9.608-18.924-9.608-20.131s1.578-6.555 3.507-11.883c8.46-23.371 8.581-45.258.345-62.338-4.684-9.713-18.642-23.457-28.852-28.409-23.129-11.218-48.253-13.656-107.5-10.429-61.12 3.328-93.733 3.083-121.379-.912-22.402-3.237-37.43-8.641-41.193-14.813-4.151-6.808-.94-17.745 7.48-25.476 6.386-5.863 11.709-8.125 19.185-8.152 7.844-.028 13.005 1.828 34.257 12.317 19.275 9.513 31.26 13.855 44.531 16.135 18.109 3.111 38.562.855 51.585-5.69 10.368-5.211 9.524-6.252-6.174-7.621-20.344-1.773-33.934-5.219-34.168-8.663-.292-4.302 18.012-5.387 58.628-3.476 15.263.718 28.088.966 28.5.551 2.342-2.362-17.918-12.198-37.042-17.984-27.124-8.205-53.019-12.434-79.71-13.017-10.175-.222-20.075-.216-22 .013M549.192 548.676c-5.73 2.824-7.011 6.972-9.764 31.625-4.26 38.148-5.77 44.965-14.637 66.081-8.974 21.369-6.067 28.106 7.831 18.149 14.8-10.603 22.844-13.886 29.769-12.148 1.38.347 6.203 3.16 10.717 6.251 11.418 7.82 17.726 10.532 24.882 10.696 7.272.167 11.01-2.567 11.01-8.054 0-4.66-1.505-7.211-12.003-20.34-14.884-18.613-21.343-33.795-27.54-64.726-3.869-19.311-5.151-23.095-9.052-26.711-3.112-2.884-6.523-3.134-11.213-.823m147.133 125.715c-12.111 5.527-8.106 27.5 8.953 49.118 8.962 11.357 12.39 16.568 14.558 22.127 4.411 11.308 3.707 19.421-3.314 38.209-10.554 28.238-24.364 78.947-22.58 82.905.559 1.237 1.755 2.25 2.659 2.25.905 0 6.116-3.6 11.581-8 13.61-10.958 16.799-10.639 16.835 1.684.01 3.199.456 9.981.993 15.071 2.727 25.888 8.531 39.245 17.052 39.245 4.283 0 6.37-3.617 12.008-20.808 4.831-14.734 5.095-16.078 4.772-24.308-.342-8.707-.344-8.714-5.593-16.047-2.888-4.036-7.163-10.478-9.5-14.316-3.957-6.499-4.249-7.473-4.249-14.164 0-6.393.336-7.663 3.048-11.521 1.676-2.385 3.654-4.336 4.395-4.336s1.942 2.025 2.669 4.5c1.872 6.372 6.777 11.84 13.15 14.658 7.172 3.172 6.499 5.109-2.563 7.372-2.366.591-4.55 1.721-4.853 2.511-.31.808 1.683 4.451 4.551 8.32 10.659 14.378 12.096 22.634 7.204 41.385-1.685 6.461-5.322 17.666-8.083 24.901-2.76 7.236-5.018 13.435-5.018 13.777s1.567 1.465 3.482 2.497c5.337 2.874 7.814 8.874 7.372 17.86l-.354 7.219 10.5.719c6.567.45 11.708.33 13.726-.319 3.518-1.133 16.03-11.877 17.998-15.454.766-1.392 1.37-8.166 1.612-18.086.452-18.436 2.235-26.463 9.077-40.86 10.197-21.457 27.444-38.401 49.928-49.052l9.545-4.521 6.483-11.214c11.576-20.022 16.442-34.829 15.362-46.744-.714-7.869-3.76-12.829-12.962-21.106-6.69-6.019-7.539-7.215-9.101-12.832-5.176-18.619-16.645-30.998-34.375-37.104-7.173-2.471-21.873-4.918-29.574-4.923-7.931-.005-8.313 1.617-1.962 8.333 8.776 9.278 10.546 15.885 5.669 21.149-2.552 2.754-2.652 2.772-11.75 2.148-10.814-.741-16.038.274-19.566 3.802-3.055 3.055-3.326 8.312-.691 13.407 4.634 8.962 19.158 17.703 34.44 20.728 12.541 2.482 31.971 1.613 42.641-1.906 9.342-3.082 9.5-3.103 9.5-1.25 0 4.477-21.386 16.526-33.994 19.152-8.78 1.829-27.178 2.034-36.174.402-28.347-5.14-51.59-20.563-61.647-40.908-3.379-6.833-3.685-8.165-3.685-16.007 0-10.287 2.171-15.56 9.298-22.587C752.771 694.593 770.045 687 778.71 687c3.145 0 3.091-4.29-.095-7.476-5.311-5.31-13.801-5.531-30.387-.789-10.447 2.987-12.292 2.829-26.193-2.234-9.114-3.32-20.932-4.29-25.71-2.11M647.5 726.156c-24.054 10.85-36.735 13.947-57 13.921-14.993-.02-25.839-1.61-41.973-6.155-9.439-2.659-11.725-3.002-12.991-1.952-1.979 1.643-1.981 8.518-.003 16.906 1.712 7.263 1.365 8.115-4.526 11.12-5.167 2.637-13.313 4.583-31.373 7.498-17.735 2.862-23.125 4.986-28.912 11.392-8.691 9.62-13.209 24.629-17.643 58.614-1.077 8.25-2.261 18.825-2.632 23.5-.614 7.746-.494 8.662 1.351 10.325 3.445 3.104 7.263 1.859 10.702-3.492 1.65-2.567 5.821-9.092 9.269-14.5 11.314-17.748 23.851-30.342 34.961-35.121 7.862-3.383 16.489-4.171 45.88-4.192 26.844-.02 36.39.515 36.39 2.039 0 2.111-5.643 7.031-11.739 10.234-8.213 4.316-17.738 7.06-30.339 8.74-5.182.691-9.566 1.373-9.742 1.515s.593 2.047 1.709 4.234c3.283 6.435 4.053 14.359 2.981 30.667-1.164 17.705-.263 23.843 4.116 28.037 2.759 2.644 3.274 2.76 10.21 2.302 6.059-.4 9.86-1.547 22.304-6.732 8.25-3.438 18.201-7.307 22.114-8.598 19.119-6.309 44.984-5.438 60.806 2.048 5.74 2.715 8.58 3.152 8.58 1.321 0-.645-5.806-14.032-12.901-29.75-23.794-52.704-25.058-56.251-25.084-70.433-.035-18.219 6.134-30.667 24.669-49.784 8.288-8.547 10.316-11.212 10.316-13.55 0-6.814-4.654-6.851-19.5-.154m271.65 76.452c-1.197.838-3.136 3.407-4.308 5.708-1.173 2.301-4.992 8.949-8.487 14.772-3.982 6.636-6.355 11.691-6.355 13.542 0 5.026 18.658 35.705 24.125 39.67 3.591 2.604 6.178 1.077 8.538-5.039 1.533-3.973 1.835-7.658 1.828-22.261-.015-28.034-3.748-42.658-12.078-47.31-.598-.333-2.066.079-3.263.918M719.18 922.309c-4.661 4.96-4.411 17.555.505 25.492 3.881 6.265 9.629 9.199 18.022 9.199 10.124 0 14.293-3.072 14.293-10.533 0-2.81-.724-4.341-3.106-6.566-1.708-1.595-3.491-2.901-3.962-2.901s-3.397-.95-6.501-2.112c-5.05-1.889-6.064-2.783-9.649-8.5-4.367-6.965-6.171-7.732-9.602-4.079"/></svg>