<svg xmlns="http://www.w3.org/2000/svg" width="1000pt" height="1333pt" viewBox="0 0 1000 1333"><path d="M577.082 208.246H388.293v375.836a556.786 556.786 0 0 1-74.195 28.02 285.861 285.861 0 0 1-42.043 9.89V225.555s0-57.696-28.856-76.649v-7.418h298.434a174.728 174.728 0 0 1 35.449 66.758Zm50.29 515.95c124.405-52.259 204.413-175.016 201.976-309.9 5.59-64.573-18.356-128.202-65.125-173.081l-6.598-4.945a186.428 186.428 0 0 0-9.066-30.497 312.453 312.453 0 0 0-24.735-58.515h18.137c101.941 17.937 184.953 91.992 214.348 191.21 32.8 101.594 14.367 212.782-49.465 298.36a527.528 527.528 0 0 1-103.875 101.375l-23.086 14.836a1153.898 1153.898 0 0 1 126.96 253.031 1565.771 1565.771 0 0 1 61.829 239.016c7.422 66.758 28.031 72.527 32.152 73.351v7.418H764.223v-7.418c48.949-23.976 77.629-76.046 71.722-130.222a741.683 741.683 0 0 0-50.289-247.258 1276.316 1276.316 0 0 0-70.074-154.95c-12.367 5.77-28.855 11.54-47.816 18.134a816.2 816.2 0 0 0-40.395-79.946Zm-239.079-7.419v60.989a977.454 977.454 0 0 0 123.66-14.836c11.543 25.55 21.434 50.277 28.031 69.234l-67.601 9.066-82.442 7.418v394.79c0 9.066 0 55.222 32.153 71.703v10.714H239.078v-7.418c29.676-15.656 32.977-62.636 32.977-71.703V737.383a1037.123 1037.123 0 0 0 116.238-20.606Zm23.906-641.226H151.691v581.058a840.165 840.165 0 0 0 164.88-25.55c165.16-32.801 284.605-177 286.066-345.336 6-66.086-18.965-131.223-67.602-176.38a143.429 143.429 0 0 0-73.37-30.495 344.597 344.597 0 0 0-49.466-3.297ZM32.977 1136.293V89.563s3.296-55.223-28.856-75V7.144H412.2a589.055 589.055 0 0 1 100.578 9.066c103.871 18.648 188.375 94.207 218.47 195.332 32.03 102.566 13.358 214.25-50.29 300.832a507.73 507.73 0 0 1-103.875 103.848L554 631.059A1177.747 1177.747 0 0 1 680.133 889.03a1474.903 1474.903 0 0 1 62.652 247.262c8.246 68.406 28.856 75.824 33.8 76.648v7.418H535.864v-7.418c49.414-25.707 78.16-78.933 72.547-134.343a736.714 736.714 0 0 0-51.113-247.258 1213.796 1213.796 0 0 0-71.723-164.84 777.034 777.034 0 0 1-143.445 42.86c-31.328 5.769-63.48 10.714-102.227 14.835-38.75 4.121-67.601 6.594-87.386 7.418v404.68c0 9.066 0 56.867 32.976 73.352v7.418H0v-7.418c30.504-15.66 32.977-64.286 32.977-73.352Zm0 0" style="stroke:none;fill-rule:evenodd;fill:#151515;fill-opacity:1"/></svg>